<svg width="34" height="24" viewBox="0 0 34 24" fill="none" xmlns="http://www.w3.org/2000/svg">
<g clip-path="url(#clip0_1351_225647)">
<g clip-path="url(#clip1_1351_225647)">
<rect x="0.0126953" width="33" height="24" rx="3" fill="white"/>
<path fill-rule="evenodd" clip-rule="evenodd" d="M0.0126953 0H14.1556V11.2H0.0126953V0Z" fill="#1A47B8"/>
<path fill-rule="evenodd" clip-rule="evenodd" d="M14.1556 0V1.6H33.0127V0H14.1556ZM14.1556 3.2V4.8H33.0127V3.2H14.1556ZM14.1556 6.4V8H33.0127V6.4H14.1556ZM14.1556 9.6V11.2H33.0127V9.6H14.1556ZM0.0126953 12.8V14.4H33.0127V12.8H0.0126953ZM0.0126953 16V17.6H33.0127V16H0.0126953ZM0.0126953 19.2V20.8H33.0127V19.2H0.0126953ZM0.0126953 22.4V24H33.0127V22.4H0.0126953Z" fill="#F93939"/>
<path fill-rule="evenodd" clip-rule="evenodd" d="M1.58398 1.6001V3.2001H3.15541V1.6001H1.58398ZM4.72684 1.6001V3.2001H6.29827V1.6001H4.72684ZM7.8697 1.6001V3.2001H9.44113V1.6001H7.8697ZM11.0126 1.6001V3.2001H12.584V1.6001H11.0126ZM9.44113 3.2001V4.8001H11.0126V3.2001H9.44113ZM6.29827 3.2001V4.8001H7.8697V3.2001H6.29827ZM3.15541 3.2001V4.8001H4.72684V3.2001H3.15541ZM1.58398 4.8001V6.4001H3.15541V4.8001H1.58398ZM4.72684 4.8001V6.4001H6.29827V4.8001H4.72684ZM7.8697 4.8001V6.4001H9.44113V4.8001H7.8697ZM11.0126 4.8001V6.4001H12.584V4.8001H11.0126ZM1.58398 8.0001V9.6001H3.15541V8.0001H1.58398ZM4.72684 8.0001V9.6001H6.29827V8.0001H4.72684ZM7.8697 8.0001V9.6001H9.44113V8.0001H7.8697ZM11.0126 8.0001V9.6001H12.584V8.0001H11.0126ZM9.44113 6.4001V8.0001H11.0126V6.4001H9.44113ZM6.29827 6.4001V8.0001H7.8697V6.4001H6.29827ZM3.15541 6.4001V8.0001H4.72684V6.4001H3.15541Z" fill="white"/>
</g>
</g>
<defs>
<clipPath id="clip0_1351_225647">
<rect width="33" height="24" fill="white" transform="translate(0.0126953)"/>
</clipPath>
<clipPath id="clip1_1351_225647">
<rect x="0.0126953" width="33" height="24" rx="3" fill="white"/>
</clipPath>
</defs>
</svg>
