<svg width="47" height="32" viewBox="0 0 47 32" fill="none" xmlns="http://www.w3.org/2000/svg">
<rect x="0.0012207" width="46.6667" height="32" rx="5.33333" fill="#253B80"/>
<path fill-rule="evenodd" clip-rule="evenodd" d="M12.1671 12.084H9.88119C9.72476 12.084 9.59172 12.1977 9.56733 12.352L8.64278 18.2139C8.6244 18.3296 8.71398 18.4338 8.83131 18.4338H9.92263C10.0791 18.4338 10.2121 18.3201 10.2365 18.1654L10.4859 16.5844C10.5099 16.4296 10.6433 16.3161 10.7994 16.3161H11.523C13.0289 16.3161 13.8979 15.5874 14.1249 14.1434C14.2272 13.5117 14.1293 13.0153 13.8334 12.6676C13.5085 12.286 12.9322 12.084 12.1671 12.084ZM12.4309 14.2249C12.3059 15.0452 11.6791 15.0452 11.0731 15.0452H10.7282L10.9702 13.5132C10.9846 13.4207 11.0648 13.3525 11.1584 13.3525H11.3165C11.7293 13.3525 12.1187 13.3525 12.3199 13.5878C12.4398 13.7282 12.4766 13.9368 12.4309 14.2249ZM19.0003 14.1986H17.9057C17.8124 14.1986 17.7318 14.2669 17.7174 14.3595L17.669 14.6656L17.5924 14.5547C17.3555 14.2107 16.8271 14.0958 16.2996 14.0958C15.0898 14.0958 14.0567 15.012 13.8555 16.2972C13.7509 16.9382 13.8996 17.5512 14.2632 17.9787C14.5969 18.3718 15.0742 18.5356 15.642 18.5356C16.6167 18.5356 17.1573 17.9088 17.1573 17.9088L17.1084 18.2131C17.09 18.3294 17.1796 18.4337 17.2962 18.4337H18.2823C18.4392 18.4337 18.5714 18.32 18.5962 18.1653L19.1878 14.4186C19.2065 14.3034 19.1173 14.1986 19.0003 14.1986ZM17.4744 16.3292C17.3688 16.9546 16.8724 17.3744 16.2394 17.3744C15.9216 17.3744 15.6674 17.2725 15.5044 17.0793C15.3426 16.8875 15.281 16.6143 15.3325 16.3102C15.4312 15.6901 15.9359 15.2567 16.5593 15.2567C16.8701 15.2567 17.1228 15.3598 17.2892 15.5547C17.456 15.7516 17.5222 16.0264 17.4744 16.3292ZM23.7303 14.1985H24.8304C24.9845 14.1985 25.0744 14.3713 24.9868 14.4976L21.3281 19.7788C21.2689 19.8643 21.1713 19.9152 21.067 19.9152H19.9683C19.8137 19.9152 19.7233 19.741 19.8129 19.6143L20.9521 18.0063L19.7405 14.4505C19.6986 14.3269 19.7898 14.1985 19.9213 14.1985H21.0022C21.1427 14.1985 21.2666 14.2907 21.3071 14.4251L21.9501 16.5727L23.4674 14.3378C23.5268 14.2506 23.6255 14.1985 23.7303 14.1985Z" fill="white"/>
<path fill-rule="evenodd" clip-rule="evenodd" d="M35.6579 18.2142L36.5961 12.2452C36.6105 12.1525 36.6907 12.0843 36.784 12.084H37.8402C37.9568 12.084 38.0464 12.1885 38.028 12.3043L37.1028 18.1658C37.0787 18.3204 36.9456 18.4341 36.789 18.4341H35.8457C35.7291 18.4341 35.6395 18.3299 35.6579 18.2142ZM28.4731 12.0843H26.1868C26.0307 12.0843 25.8977 12.198 25.8732 12.3524L24.9487 18.2142C24.9303 18.3299 25.0198 18.4341 25.1366 18.4341H26.3097C26.4188 18.4341 26.5121 18.3546 26.5291 18.2463L26.7914 16.5848C26.8155 16.4299 26.9489 16.3164 27.105 16.3164H27.8282C29.3344 16.3164 30.2032 15.5877 30.4305 14.1437C30.533 13.512 30.4345 13.0156 30.1387 12.6679C29.814 12.2863 29.2382 12.0843 28.4731 12.0843ZM28.7368 14.2252C28.6122 15.0455 27.9854 15.0455 27.3791 15.0455H27.0344L27.2768 13.5136C27.2912 13.4211 27.3707 13.3528 27.4646 13.3528H27.6227C28.0352 13.3528 28.425 13.3528 28.6261 13.5881C28.7461 13.7286 28.7826 13.9371 28.7368 14.2252ZM35.3057 14.1989H34.2118C34.1178 14.1989 34.0379 14.2672 34.0239 14.3598L33.9754 14.6659L33.8986 14.555C33.6616 14.211 33.1335 14.0961 32.6061 14.0961C31.3963 14.0961 30.3635 15.0123 30.1622 16.2975C30.058 16.9385 30.206 17.5515 30.5697 17.9791C30.9039 18.3721 31.3807 18.5359 31.9485 18.5359C32.9231 18.5359 33.4636 17.9091 33.4636 17.9091L33.4149 18.2134C33.3965 18.3297 33.486 18.434 33.6034 18.434H34.5891C34.7451 18.434 34.8782 18.3203 34.9026 18.1656L35.4946 14.4189C35.5127 14.3037 35.4231 14.1989 35.3057 14.1989ZM33.7799 16.3295C33.6749 16.9549 33.1779 17.3747 32.5448 17.3747C32.2275 17.3747 31.9729 17.2728 31.8098 17.0796C31.648 16.8878 31.5872 16.6146 31.6381 16.3105C31.7372 15.6904 32.2413 15.257 32.8647 15.257C33.1756 15.257 33.4282 15.3601 33.5948 15.555C33.7621 15.7519 33.8283 16.0267 33.7799 16.3295Z" fill="#179BD7"/>
</svg>
