<svg width="47" height="32" viewBox="0 0 47 32" fill="none" xmlns="http://www.w3.org/2000/svg">
<rect width="46.6667" height="32" rx="2.66667" fill="#6461FC"/>
<path fill-rule="evenodd" clip-rule="evenodd" d="M25.074 10.8559L22.7034 11.3647V9.44269L25.074 8.94336V10.8559ZM15.4405 10.0365L13.1361 10.5264L13.1266 18.0729C13.1266 19.4673 14.175 20.4942 15.5728 20.4942C16.3472 20.4942 16.9139 20.3529 17.2255 20.1833V18.2707C16.9233 18.3932 15.4311 18.8266 15.4311 17.4322V14.0877H17.2255V12.0809H15.4311L15.4405 10.0365ZM40.6667 16.2352C40.6667 13.8234 39.4956 11.9202 37.2573 11.9202C35.0095 11.9202 33.6495 13.8234 33.6495 16.2164C33.6495 19.0522 35.2551 20.4843 37.5595 20.4843C38.6834 20.4843 39.5334 20.2299 40.1756 19.8719V17.9876C39.5334 18.3079 38.7967 18.5058 37.8617 18.5058C36.9456 18.5058 36.1334 18.1855 36.0295 17.0737H40.6478C40.6478 17.0219 40.6512 16.904 40.6551 16.7683L40.6551 16.7679V16.7679V16.7677C40.6605 16.5831 40.6667 16.3654 40.6667 16.2352ZM36.0011 15.3404C36.0011 14.2758 36.6528 13.833 37.2478 13.833C37.8239 13.833 38.4378 14.2758 38.4378 15.3404H36.0011ZM9.85899 13.965C9.35843 13.965 9.0562 14.1063 9.0562 14.4738C9.0562 14.8749 9.57634 15.0514 10.2216 15.2704C11.2736 15.6273 12.6581 16.0971 12.664 17.8372C12.664 19.5236 11.3134 20.494 9.34898 20.494C8.53676 20.494 7.64897 20.3339 6.77064 19.957V17.7147C7.56397 18.1481 8.56509 18.4684 9.34898 18.4684C9.87787 18.4684 10.2557 18.3271 10.2557 17.8937C10.2557 17.4494 9.69182 17.2462 9.01112 17.001C7.97446 16.6276 6.66675 16.1565 6.66675 14.5868C6.66675 12.9192 7.94175 11.9206 9.85899 11.9206C10.6429 11.9206 11.4173 12.0431 12.2012 12.354V14.568C11.4834 14.1817 10.5768 13.965 9.85899 13.965ZM20.1629 12.7776L20.0118 12.0805H17.9718V20.3242H20.3329V14.7373C20.8901 14.0118 21.8346 14.1437 22.1273 14.2474V12.0805C21.8251 11.9674 20.7201 11.7601 20.1629 12.7776ZM22.7032 12.0807H25.0738V20.3244H22.7032V12.0807ZM28.1528 12.6551C28.4833 12.3536 29.0783 11.9202 30.0039 11.9202C31.6567 11.9202 33.215 13.4088 33.2244 16.141C33.2244 19.1276 31.685 20.4843 29.9944 20.4843C29.1633 20.4843 28.6628 20.1357 28.3228 19.8907L28.3133 22.557L25.9522 23.0563V12.071H28.03L28.1528 12.6551ZM28.3227 17.969C28.5494 18.214 28.8799 18.4118 29.4372 18.4118C30.3061 18.4118 30.8916 17.4697 30.8916 16.2072C30.8916 14.973 30.2966 14.012 29.4372 14.012C28.8988 14.012 28.5588 14.2005 28.3133 14.4737L28.3227 17.969Z" fill="white"/>
</svg>
