<svg width="47" height="32" viewBox="0 0 47 32" fill="none" xmlns="http://www.w3.org/2000/svg">
<rect x="0.275862" y="0.275862" width="45.7931" height="31.4483" rx="1.93103" fill="white" stroke="#F3F3F3" stroke-width="0.551724"/>
<path d="M9.43684 12.1387C9.71116 12.5916 9.83483 13.0582 9.83483 13.6476C9.83483 15.5274 8.22982 17.9694 6.92717 19.6841H3.95183L2.75854 12.5502L5.36378 12.303L5.99468 17.3792C6.58419 16.419 7.31164 14.9101 7.31164 13.8813C7.31164 13.3182 7.21517 12.9346 7.06436 12.6188L9.43684 12.1387Z" fill="#008CFF"/>
<path d="M12.8134 15.2805C13.2928 15.2805 14.4998 15.0612 14.4998 14.3753C14.4998 14.046 14.2669 13.8817 13.9924 13.8817C13.5122 13.8817 12.8821 14.4574 12.8134 15.2805ZM12.7585 16.6388C12.7585 17.4762 13.2242 17.8048 13.8417 17.8048C14.5141 17.8048 15.1579 17.6405 15.9946 17.2153L15.6795 19.3551C15.0899 19.6431 14.1711 19.8352 13.2793 19.8352C11.017 19.8352 10.2073 18.4636 10.2073 16.7487C10.2073 14.5262 11.5244 12.1662 14.2396 12.1662C15.7346 12.1662 16.5705 13.0036 16.5705 14.1696C16.5706 16.0493 14.1576 16.6252 12.7585 16.6388Z" fill="#008CFF"/>
<path d="M24.089 13.7855C24.089 14.0598 24.0475 14.4577 24.0059 14.7178L23.2243 19.6568H20.6875L21.4006 15.1293C21.4141 15.0065 21.4556 14.7592 21.4556 14.6221C21.4556 14.2927 21.2498 14.2106 21.0024 14.2106C20.6738 14.2106 20.3444 14.3613 20.125 14.4714L19.3162 19.6569H16.7651L17.9306 12.2622H20.1385L20.1665 12.8525C20.6874 12.5095 21.3733 12.1387 22.3464 12.1387C23.6359 12.1385 24.089 12.7973 24.089 13.7855Z" fill="#008CFF"/>
<path d="M31.6202 12.9757C32.3468 12.4549 33.0328 12.1662 33.9786 12.1662C35.2812 12.1662 35.7343 12.8249 35.7343 13.8131C35.7343 14.0875 35.6928 14.4854 35.6514 14.7454L34.8706 19.6845H32.3331L33.0599 15.0613C33.0732 14.9377 33.1014 14.7869 33.1014 14.6913C33.1014 14.3205 32.8955 14.2382 32.6481 14.2382C32.3331 14.2382 32.018 14.3754 31.7841 14.4991L30.9755 19.6846H28.4387L29.1653 15.0613C29.1787 14.9377 29.2061 14.787 29.2061 14.6914C29.2061 14.3206 29 14.2383 28.7536 14.2383C28.4242 14.2383 28.0955 14.3891 27.8761 14.4991L27.0666 19.6846H24.5164L25.6818 12.29H27.8628L27.9313 12.9073C28.4387 12.5374 29.124 12.1665 30.0428 12.1665C30.8383 12.1662 31.359 12.5092 31.6202 12.9757Z" fill="#008CFF"/>
<path d="M40.7823 15.1296C40.7823 14.5259 40.6312 14.1144 40.1791 14.1144C39.178 14.1144 38.9723 15.8839 38.9723 16.7892C38.9723 17.476 39.1645 17.901 39.6166 17.901C40.5628 17.901 40.7823 16.0348 40.7823 15.1296ZM36.3943 16.6799C36.3943 14.348 37.6282 12.166 40.4672 12.166C42.6065 12.166 43.3885 13.4284 43.3885 15.171C43.3885 17.4759 42.1679 19.8628 39.2603 19.8628C37.1073 19.8628 36.3943 18.4496 36.3943 16.6799Z" fill="#008CFF"/>
</svg>
